<svg xmlns="http://www.w3.org/2000/svg" shape-rendering="geometricPrecision" text-rendering="geometricPrecision" image-rendering="optimizeQuality" fill-rule="evenodd" clip-rule="evenodd" viewBox="0 0 512 242.884"><path d="M383.293 192.315c4.939 3.881 8.073 9.785 8.073 18.503 0 18.607-15.267 30.409-33.055 30.409h-56.328c-62.753 5.062-81.359-1.736-122.717-16.851-8.403-3.071-17.802-6.507-29.381-10.463a108.35 108.35 0 00-8.879-2.613c-.628 8.231-7.539 14.751-15.927 14.751h-17.683c-.37 0-.736-.026-1.093-.075-2.648 7.487-9.812 12.887-18.169 12.887H19.263C8.691 238.863 0 230.172 0 219.6V28.54C0 17.949 8.688 9.278 19.263 9.278h68.871c8.377 0 15.532 5.393 18.173 12.886a8.01 8.01 0 011.089-.074h17.683c8.659 0 15.808 7.054 15.969 15.677 5.779-2.083 13.556-6.479 22.331-11.438 31.893-18.027 75.338-42.581 111.048-11.403.663.578 1.269 1.119 1.83 1.63h201.141c18.814 0 34.602 14.068 34.602 33.277 0 19.213-15.784 33.278-34.602 33.278h-75.1c7.712 4.63 12.88 12.357 12.88 23.422 0 12.578-6.886 22.896-16.948 28.387 10.848 3.597 18.826 11.596 18.826 25.554 0 19.138-15.503 31.517-33.763 31.841zM68.867 48.231c0 8.377-6.792 15.167-15.169 15.167S38.53 56.608 38.53 48.231c0-8.377 6.791-15.169 15.168-15.169 8.377 0 15.169 6.792 15.169 15.169zm64.18-10.168v172.015c0 4.383-3.589 7.968-7.968 7.968h-17.683V30.095h17.683c4.383 0 7.968 3.586 7.968 7.968zm144.305 122.614c-2.742-11.95-3.021-25.305-1.168-40.026a4.615 4.615 0 00-1.868-4.434l-17.589-12.697a4.43 4.43 0 00-.313-.227l-14.497-10.464a4.616 4.616 0 00-5.393 7.492l10.101 7.29c-10.04 8.948-21.411 15.505-34.663 18.678-15.166 3.63-32.945 2.889-54.203-3.676a4.62 4.62 0 00-2.715 8.831c22.921 7.08 42.315 7.827 59.052 3.82 15.567-3.727 28.716-11.521 40.185-22.125l12.436 8.977c-1.636 14.787-1.197 28.337 1.624 40.625 2.923 12.742 8.389 24.113 16.717 34.081-2.446 10.939 1.205 26.872 14.938 35.801-74.422 6.05-83.327-4.968-147.355-26.843a117.375 117.375 0 00-11.589-3.304V46.769c27.754-7.627 91.086-67.689 134.164-18.969l41.887 61.453c6.649 9.757 5.812 8.354 6.286 20.1l2.389 59.197c1.906 42.629-38.619 34.891-48.426-7.873zm50.966 33.632h29.993c13.449 0 24.451 3.061 24.451 16.509 0 13.837-11.473 21.805-24.451 21.805h-48.262c-7.63-5.078-17.677-22.38-16.945-31.875 3.019 1.881 6.037 3.183 8.991 3.945 5.821 1.5 11.335.939 16.207-1.405 3.967-1.909 7.368-4.954 10.016-8.979zM317.447 74.514h159.951c14.303 0 26.005-10.377 26.005-24.681 0-14.496-11.918-24.68-26.005-24.68H283.803c.84 1.21 1.759 2.583 2.893 4.246l30.751 45.115zm15.383 56.095h48.344c13.755 0 25.4-9.911 25.4-24.076 0-13.97-11.436-20.105-25.4-20.105h-55.608c2.788 4.109 4.186 6.334 5.134 9.371.918 2.932.995 5.344 1.138 9.824l.121 3.395.871 21.591zm.057 53.11h49.671c14.241 0 25.894-9.004 25.894-23.245 0-15.13-13.087-19.276-25.894-19.276h-49.3l1.089 26.982c.257 5.734-.277 10.955-1.46 15.539z"/></svg>